<svg xmlns="http://www.w3.org/2000/svg" xmlns:xlink="http://www.w3.org/1999/xlink" id="processonSvg1000" viewBox="242.0 13.24235645041017 772.0 465.75764354958983" width="772.0" height="465.75764354958983"><defs id="ProcessOnDefs1001"><marker id="ProcessOnMarker1015" markerUnits="userSpaceOnUse" orient="auto" markerWidth="14.118033988749895" markerHeight="9.174454630060925" viewBox="-0.5 -0.6881909602355868 14.118033988749895 9.174454630060925" refX="-0.5" refY="3.8990363547948754"><path id="ProcessOnPath1016" d="M12.0 3.8990363547948754L0.0 7.798072709589751V0.0Z" stroke="#323232" stroke-width="1.0" fill="#323232" transform="matrix(1.0,0.0,0.0,1.0,0.0,0.0)"/></marker><marker id="ProcessOnMarker1024" markerUnits="userSpaceOnUse" orient="auto" markerWidth="22.590169943749473" markerHeight="14.679982311945619" viewBox="-2.5 -3.440954801177934 22.590169943749473 14.679982311945619" refX="-2.5" refY="3.8990363547948754"><path id="ProcessOnPath1025" d="M12.0 3.8990363547948754L0.0 7.798072709589751V0.0Z" stroke="#000099" stroke-width="5.0" fill="#000099" transform="matrix(1.0,0.0,0.0,1.0,0.0,0.0)"/></marker><marker id="ProcessOnMarker1028" markerUnits="userSpaceOnUse" orient="auto" markerWidth="14.118033988749895" markerHeight="9.174454630060925" viewBox="-0.5 -0.6881909602355868 14.118033988749895 9.174454630060925" refX="-0.5" refY="3.8990363547948754"><path id="ProcessOnPath1029" d="M12.0 3.8990363547948754L0.0 7.798072709589751V0.0Z" stroke="#323232" stroke-width="1.0" fill="#323232" transform="matrix(1.0,0.0,0.0,1.0,0.0,0.0)"/></marker><marker id="ProcessOnMarker1032" markerUnits="userSpaceOnUse" orient="auto" markerWidth="14.118033988749895" markerHeight="9.174454630060925" viewBox="-0.5 -0.6881909602355868 14.118033988749895 9.174454630060925" refX="-0.5" refY="3.8990363547948754"><path id="ProcessOnPath1033" d="M12.0 3.8990363547948754L0.0 7.798072709589751V0.0Z" stroke="#323232" stroke-width="1.0" fill="#323232" transform="matrix(1.0,0.0,0.0,1.0,0.0,0.0)"/></marker><marker id="ProcessOnMarker1055" markerUnits="userSpaceOnUse" orient="auto" markerWidth="16.23606797749979" markerHeight="10.550836550532098" viewBox="-1.0 -1.3763819204711736 16.23606797749979 10.550836550532098" refX="-1.0" refY="3.8990363547948754"><path id="ProcessOnPath1056" d="M12.0 3.8990363547948754L0.0 7.798072709589751V0.0Z" stroke="#323232" stroke-width="2.0" fill="#323232" transform="matrix(1.0,0.0,0.0,1.0,0.0,0.0)"/></marker><marker id="ProcessOnMarker1064" markerUnits="userSpaceOnUse" orient="auto" markerWidth="16.23606797749979" markerHeight="10.550836550532098" viewBox="-1.0 -1.3763819204711736 16.23606797749979 10.550836550532098" refX="-1.0" refY="3.8990363547948754"><path id="ProcessOnPath1065" d="M12.0 3.8990363547948754L0.0 7.798072709589751V0.0Z" stroke="#323232" stroke-width="2.0" fill="#323232" transform="matrix(1.0,0.0,0.0,1.0,0.0,0.0)"/></marker><marker id="ProcessOnMarker1072" markerUnits="userSpaceOnUse" orient="auto" markerWidth="16.23606797749979" markerHeight="10.550836550532098" viewBox="-1.0 -1.3763819204711736 16.23606797749979 10.550836550532098" refX="-1.0" refY="3.8990363547948754"><path id="ProcessOnPath1073" d="M12.0 3.8990363547948754L0.0 7.798072709589751V0.0Z" stroke="#323232" stroke-width="2.0" fill="#323232" transform="matrix(1.0,0.0,0.0,1.0,0.0,0.0)"/></marker></defs><g id="ProcessOnG1002"><path id="ProcessOnPath1003" d="M242.0 13.24235645041017H1014.0V479.0H242.0V13.24235645041017Z" fill="none"/><g id="ProcessOnG1004"><g id="ProcessOnG1005" transform="matrix(1.0,0.0,0.0,1.0,333.92741246797607,155.78523489932886)" opacity="1.0"><path id="ProcessOnPath1006" d="M0.0 55.49496644295302L0.0 0.0L100.59777967549104 0.0L100.59777967549104 55.49496644295302Q75.44833475661828 39.63926174496645 50.29888983774552 55.49496644295302Q25.14944491887276 71.3506711409396 0.0 55.49496644295302Z" stroke="#4d9900" stroke-width="2.0" stroke-dasharray="none" opacity="1.0" fill="#4d9900"/><g id="ProcessOnG1007" transform="matrix(1.0,0.0,0.0,1.0,0.0,20.41526845637584)"><text id="ProcessOnText1008" fill="#000000" font-weight="normal" font-style="normal" text-decoration="blink" font-family="微软雅黑" text-anchor="middle" font-size="13" x="50.29888983774552" y="13.325">编程语言的规则</text></g></g><g id="ProcessOnG1009" transform="matrix(1.0,0.0,0.0,1.0,500.91972672929126,155.78523489932888)" opacity="1.0"><path id="ProcessOnPath1010" d="M0.0 31.711409395973156L45.269000853970965 0.0L90.53800170794193 31.711409395973156L45.269000853970965 63.42281879194631L0.0 31.711409395973156Z" stroke="#000000" stroke-width="4.0" stroke-dasharray="none" opacity="1.0" fill="#ff8000"/><g id="ProcessOnG1011" transform="matrix(1.0,0.0,0.0,1.0,10.0,23.586409395973156)"><text id="ProcessOnText1012" fill="#000000" font-weight="normal" font-style="normal" text-decoration="blink" font-family="微软雅黑" text-anchor="middle" font-size="13" x="35.269000853970965" y="13.325">编译器</text></g></g><g id="ProcessOnG1013"><path id="ProcessOnPath1014" d="M591.4577284372332 187.49664429530205L625.6609735269001 187.49664429530205L625.6609735269001 187.49664429530202L646.2461846278172 187.49664429530202" stroke="#323232" stroke-width="1.0" stroke-dasharray="5.0 2.0" fill="none" marker-end="url(#ProcessOnMarker1015)"/></g><g id="ProcessOnG1017" transform="matrix(1.0,0.0,0.0,1.0,659.8642186165671,155.78523489932886)" opacity="1.0"><path id="ProcessOnPath1018" d="M0.0 0.0L100.59777967549104 0.0L100.59777967549104 63.42281879194631L0.0 63.42281879194631Z" stroke="#99ccff" stroke-width="2.0" stroke-dasharray="none" opacity="1.0" fill="#99ccff"/><g id="ProcessOnG1019" transform="matrix(1.0,0.0,0.0,1.0,10.0,15.461409395973156)"><text id="ProcessOnText1020" fill="#000000" font-weight="normal" font-style="normal" text-decoration="blink" font-family="微软雅黑" text-anchor="middle" font-size="13" x="40.29888983774552" y="13.325">目标机器的指</text><text id="ProcessOnText1021" fill="#000000" font-weight="normal" font-style="normal" text-decoration="blink" font-family="微软雅黑" text-anchor="middle" font-size="13" x="40.29888983774552" y="29.575">令集</text></g></g><g id="ProcessOnG1022"><path id="ProcessOnPath1023" d="M546.1887275832622 219.20805369127518L546.1887275832622 308.27069351230426L546.1887275832622 308.27069351230426L546.1887275832622 377.24316338958386" stroke="#000099" stroke-width="5.0" stroke-dasharray="none" fill="none" marker-end="url(#ProcessOnMarker1024)"/></g><g id="ProcessOnG1026"><path id="ProcessOnPath1027" d="M500.91972672929126 187.49664429530205L467.72245943637915 187.49664429530205L467.72245943637915 187.49664429530202L448.143226132217 187.49664429530202" stroke="#323232" stroke-width="1.0" stroke-dasharray="5.0 2.0" fill="none" marker-end="url(#ProcessOnMarker1028)"/></g><g id="ProcessOnG1030"><path id="ProcessOnPath1031" d="M546.1887275832622 155.78523489932888L546.1887275832622 127.13124533929906L546.1887275832623 127.13124533929906L546.1887275832623 112.09528976801913" stroke="#323232" stroke-width="1.0" stroke-dasharray="5.0 2.0" fill="none" marker-end="url(#ProcessOnMarker1032)"/></g><g id="ProcessOnG1034" transform="matrix(1.0,0.0,0.0,1.0,495.638343296328,33.24235645041017)" opacity="1.0"><path id="ProcessOnPath1035" d="M0.0 32.61744966442953C0.0 -10.872483221476509 101.10076857386848 -10.872483221476509 101.10076857386848 32.61744966442953C101.10076857386848 76.10738255033557 0.0 76.10738255033557 0.0 32.61744966442953Z" stroke="#ffffff" stroke-width="2.0" stroke-dasharray="none" opacity="1.0" fill="#ff99cc"/><g id="ProcessOnG1036" transform="matrix(1.0,0.0,0.0,1.0,10.0,16.36744966442953)"><text id="ProcessOnText1037" fill="#000000" font-weight="normal" font-style="normal" text-decoration="blink" font-family="微软雅黑" text-anchor="middle" font-size="13" x="40.55038428693424" y="13.325">操作系统遵循</text><text id="ProcessOnText1038" fill="#000000" font-weight="normal" font-style="normal" text-decoration="blink" font-family="微软雅黑" text-anchor="middle" font-size="13" x="40.55038428693424" y="29.575">的惯例</text></g></g><g id="ProcessOnG1039" transform="matrix(1.0,0.0,0.0,1.0,760.4619982920581,236.42281879194633)" opacity="1.0"><path id="ProcessOnPath1040" d="M0.0 31.711409395973156L45.269000853970965 0.0L90.53800170794193 31.711409395973156L45.269000853970965 63.42281879194631L0.0 31.711409395973156Z" stroke="#323232" stroke-width="2.0" stroke-dasharray="10.0 4.0" opacity="1.0" fill="#ffffff"/><g id="ProcessOnG1041" transform="matrix(1.0,0.0,0.0,1.0,10.0,15.461409395973156)"><text id="ProcessOnText1042" fill="#000000" font-weight="normal" font-style="normal" text-decoration="blink" font-family="微软雅黑" text-anchor="middle" font-size="13" x="35.269000853970965" y="13.325">GCC C编译</text><text id="ProcessOnText1043" fill="#000000" font-weight="normal" font-style="normal" text-decoration="blink" font-family="微软雅黑" text-anchor="middle" font-size="13" x="35.269000853970965" y="29.575">器</text></g></g><g id="ProcessOnG1044" transform="matrix(1.0,0.0,0.0,1.0,262.0,263.6040268456376)" opacity="1.0"><path id="ProcessOnPath1045" d="M0.0 31.711409395973156L45.269000853970965 0.0L90.53800170794193 31.711409395973156L45.269000853970965 63.42281879194631L0.0 31.711409395973156Z" stroke="#323232" stroke-width="2.0" stroke-dasharray="10.0 4.0" opacity="1.0" fill="#ffffff"/><g id="ProcessOnG1046" transform="matrix(1.0,0.0,0.0,1.0,10.0,15.461409395973156)"><text id="ProcessOnText1047" fill="#000000" font-weight="normal" font-style="normal" text-decoration="blink" font-family="微软雅黑" text-anchor="middle" font-size="13" x="35.269000853970965" y="13.325">汇编器和链</text><text id="ProcessOnText1048" fill="#000000" font-weight="normal" font-style="normal" text-decoration="blink" font-family="微软雅黑" text-anchor="middle" font-size="13" x="35.269000853970965" y="29.575">接器</text></g></g><g id="ProcessOnG1049" transform="matrix(0.17364817766693041,0.984807753012208,-0.984807753012208,0.17364817766693041,612.6149643718279,233.27014660880897)" opacity="1.0"><path id="ProcessOnPath1050" d="M0.0 0.0L70.41844577284373 0.0L70.41844577284373 36.241610738255034L35.20922288642186 54.36241610738255L0.0 36.241610738255034L0.0 0.0Z" stroke="#323232" stroke-width="2.0" stroke-dasharray="none" opacity="1.0" fill="#ffffff"/><g id="ProcessOnG1051" transform="matrix(1.0,0.0,0.0,1.0,0.0,9.995805369127517)"><text id="ProcessOnText1052" fill="#000000" font-weight="normal" font-style="normal" text-decoration="blink" font-family="微软雅黑" text-anchor="middle" font-size="13" x="35.20922288642186" y="13.325">汇编代码</text></g></g><g id="ProcessOnG1053"><path id="ProcessOnPath1054" d="M760.4619982920581 268.13422818791946L689.5954900275909 268.13422818791946L689.5954900275909 267.9444622848921L633.9650497406236 267.9444622848921" stroke="#323232" stroke-width="2.0" stroke-dasharray="none" fill="none" marker-end="url(#ProcessOnMarker1055)"/></g><g id="ProcessOnG1057" transform="matrix(0.573576436351046,-0.8191520442889918,0.8191520442889918,0.573576436351046,452.92612611383004,324.8753675279121)" opacity="1.0"><path id="ProcessOnPath1058" d="M0.0 0.0L70.41844577284373 0.0L70.41844577284373 36.241610738255034L35.20922288642186 54.36241610738255L0.0 36.241610738255034L0.0 0.0Z" stroke="#323232" stroke-width="2.0" stroke-dasharray="none" opacity="1.0" fill="#ffffff"/><g id="ProcessOnG1059" transform="matrix(1.0,0.0,0.0,1.0,0.0,1.8708053691275168)"><text id="ProcessOnText1060" fill="#000000" font-weight="normal" font-style="normal" text-decoration="blink" font-family="微软雅黑" text-anchor="middle" font-size="13" x="35.20922288642186" y="13.325">可执行的机</text><text id="ProcessOnText1061" fill="#000000" font-weight="normal" font-style="normal" text-decoration="blink" font-family="微软雅黑" text-anchor="middle" font-size="13" x="35.20922288642186" y="29.575">器代码</text></g></g><g id="ProcessOnG1062"><path id="ProcessOnPath1063" d="M352.53800170794193 295.3154362416107L412.82965420582775 295.3154362416107L412.82965420582775 296.03366062267287L457.88523872621386 296.03366062267287" stroke="#323232" stroke-width="2.0" stroke-dasharray="none" fill="none" marker-end="url(#ProcessOnMarker1064)"/></g><g id="ProcessOnG1066" transform="matrix(1.0,0.0,0.0,1.0,894.0,99.66666666666669)" opacity="1.0"><path id="ProcessOnPath1067" d="M0.0 8.333333333333334Q25.0 25.0 50.0 8.333333333333334Q75.0 -8.333333333333334 100.0 8.333333333333334L100.0 61.666666666666664Q75.0 45.0 50.0 61.666666666666664Q25.0 78.33333333333333 0.0 61.666666666666664L0.0 8.333333333333334Z" stroke="#323232" stroke-width="2.0" stroke-dasharray="10.0 4.0 2.0 4.0" opacity="1.0" fill="#ffffff"/><g id="ProcessOnG1068" transform="matrix(1.0,0.0,0.0,1.0,0.0,26.875)"><text id="ProcessOnText1069" fill="#000000" font-weight="normal" font-style="normal" text-decoration="blink" font-family="微软雅黑" text-anchor="middle" font-size="13" x="50.0" y="13.325">高级语言代码</text></g></g><g id="ProcessOnG1070"><path id="ProcessOnPath1071" d="M944.0 161.33333333333334L944.0 268.13422818791946L866.2360679774998 268.13422818791946" stroke="#323232" stroke-width="2.0" stroke-dasharray="none" fill="none" marker-end="url(#ProcessOnMarker1072)"/></g><g id="ProcessOnG1074" transform="matrix(1.0,0.0,0.0,1.0,496.1887275832622,389.0)" opacity="1.0"><path id="ProcessOnPath1075" d="M0.0 8.333333333333334Q25.0 25.0 50.0 8.333333333333334Q75.0 -8.333333333333334 100.0 8.333333333333334L100.0 61.666666666666664Q75.0 45.0 50.0 61.666666666666664Q25.0 78.33333333333333 0.0 61.666666666666664L0.0 8.333333333333334Z" stroke="#323232" stroke-width="2.0" stroke-dasharray="10.0 4.0 2.0 4.0" opacity="1.0" fill="#ffffff"/><g id="ProcessOnG1076" transform="matrix(1.0,0.0,0.0,1.0,0.0,26.875)"><text id="ProcessOnText1077" fill="#000000" font-weight="normal" font-style="normal" text-decoration="blink" font-family="微软雅黑" text-anchor="middle" font-size="13" x="50.0" y="13.325">机器代码</text></g></g></g></g></svg>